<mxfile host="app.diagrams.net" agent="Mozilla/5.0 (Windows NT 10.0; Win64; x64) AppleWebKit/537.36 (KHTML, like Gecko) Chrome/137.0.0.0 Safari/537.36" version="27.1.1">
  <diagram id="Ht1M8jgEwFfnCIfOTk4-" name="Page-1">
    <mxGraphModel dx="1267" dy="572" grid="1" gridSize="10" guides="1" tooltips="1" connect="1" arrows="1" fold="1" page="1" pageScale="1" pageWidth="1169" pageHeight="827" math="0" shadow="0">
      <root>
        <mxCell id="0" />
        <mxCell id="1" parent="0" />
        <mxCell id="askm0axA8ZJcmQ5gyK_8-29" style="edgeStyle=none;curved=1;rounded=0;orthogonalLoop=1;jettySize=auto;html=1;fontSize=12;startSize=8;endSize=8;" edge="1" parent="1" source="askm0axA8ZJcmQ5gyK_8-1" target="askm0axA8ZJcmQ5gyK_8-3">
          <mxGeometry relative="1" as="geometry" />
        </mxCell>
        <mxCell id="askm0axA8ZJcmQ5gyK_8-1" value="users" style="sketch=0;outlineConnect=0;gradientColor=none;fontColor=#545B64;strokeColor=none;fillColor=#879196;dashed=0;verticalLabelPosition=bottom;verticalAlign=top;align=center;html=1;fontSize=12;fontStyle=0;aspect=fixed;shape=mxgraph.aws4.illustration_users;pointerEvents=1" vertex="1" parent="1">
          <mxGeometry x="70" y="290" width="90" height="90" as="geometry" />
        </mxCell>
        <mxCell id="askm0axA8ZJcmQ5gyK_8-22" value="AWS Cloud" style="points=[[0,0],[0.25,0],[0.5,0],[0.75,0],[1,0],[1,0.25],[1,0.5],[1,0.75],[1,1],[0.75,1],[0.5,1],[0.25,1],[0,1],[0,0.75],[0,0.5],[0,0.25]];outlineConnect=0;gradientColor=none;html=1;whiteSpace=wrap;fontSize=12;fontStyle=0;container=1;pointerEvents=0;collapsible=0;recursiveResize=0;shape=mxgraph.aws4.group;grIcon=mxgraph.aws4.group_aws_cloud_alt;strokeColor=#232F3E;fillColor=none;verticalAlign=top;align=left;spacingLeft=30;fontColor=#232F3E;dashed=0;" vertex="1" parent="1">
          <mxGeometry x="260" y="260" width="760" height="730" as="geometry" />
        </mxCell>
        <mxCell id="askm0axA8ZJcmQ5gyK_8-39" value="" style="edgeStyle=none;curved=1;rounded=0;orthogonalLoop=1;jettySize=auto;html=1;fontSize=12;startSize=8;endSize=8;" edge="1" parent="askm0axA8ZJcmQ5gyK_8-22" source="askm0axA8ZJcmQ5gyK_8-7" target="askm0axA8ZJcmQ5gyK_8-2">
          <mxGeometry relative="1" as="geometry" />
        </mxCell>
        <mxCell id="askm0axA8ZJcmQ5gyK_8-7" value="Amazon Cognito" style="sketch=0;outlineConnect=0;fontColor=#232F3E;gradientColor=none;strokeColor=#ffffff;fillColor=#232F3E;dashed=0;verticalLabelPosition=middle;verticalAlign=bottom;align=center;html=1;whiteSpace=wrap;fontSize=10;fontStyle=1;spacing=3;shape=mxgraph.aws4.productIcon;prIcon=mxgraph.aws4.cognito;" vertex="1" parent="askm0axA8ZJcmQ5gyK_8-22">
          <mxGeometry x="270" y="170" width="80" height="110" as="geometry" />
        </mxCell>
        <mxCell id="askm0axA8ZJcmQ5gyK_8-40" value="" style="edgeStyle=none;curved=1;rounded=0;orthogonalLoop=1;jettySize=auto;html=1;fontSize=12;startSize=8;endSize=8;" edge="1" parent="askm0axA8ZJcmQ5gyK_8-22" source="askm0axA8ZJcmQ5gyK_8-2" target="askm0axA8ZJcmQ5gyK_8-13">
          <mxGeometry relative="1" as="geometry" />
        </mxCell>
        <mxCell id="askm0axA8ZJcmQ5gyK_8-2" value="Amazon API Gateway" style="sketch=0;outlineConnect=0;fontColor=#232F3E;gradientColor=none;strokeColor=#ffffff;fillColor=#232F3E;dashed=0;verticalLabelPosition=middle;verticalAlign=bottom;align=center;html=1;whiteSpace=wrap;fontSize=10;fontStyle=1;spacing=3;shape=mxgraph.aws4.productIcon;prIcon=mxgraph.aws4.api_gateway;" vertex="1" parent="askm0axA8ZJcmQ5gyK_8-22">
          <mxGeometry x="420" y="170.00000000000003" width="80" height="110" as="geometry" />
        </mxCell>
        <mxCell id="askm0axA8ZJcmQ5gyK_8-13" value="Amazon DynamoDB" style="sketch=0;outlineConnect=0;fontColor=#232F3E;gradientColor=none;strokeColor=#ffffff;fillColor=#232F3E;dashed=0;verticalLabelPosition=middle;verticalAlign=bottom;align=center;html=1;whiteSpace=wrap;fontSize=10;fontStyle=1;spacing=3;shape=mxgraph.aws4.productIcon;prIcon=mxgraph.aws4.dynamodb;" vertex="1" parent="askm0axA8ZJcmQ5gyK_8-22">
          <mxGeometry x="600" y="170" width="80" height="110" as="geometry" />
        </mxCell>
        <mxCell id="askm0axA8ZJcmQ5gyK_8-37" value="" style="edgeStyle=none;curved=1;rounded=0;orthogonalLoop=1;jettySize=auto;html=1;fontSize=12;startSize=8;endSize=8;" edge="1" parent="askm0axA8ZJcmQ5gyK_8-22" source="askm0axA8ZJcmQ5gyK_8-10" target="askm0axA8ZJcmQ5gyK_8-19">
          <mxGeometry relative="1" as="geometry" />
        </mxCell>
        <mxCell id="askm0axA8ZJcmQ5gyK_8-10" value="Amazon SQS" style="sketch=0;outlineConnect=0;fontColor=#232F3E;gradientColor=none;strokeColor=#ffffff;fillColor=#232F3E;dashed=0;verticalLabelPosition=middle;verticalAlign=bottom;align=center;html=1;whiteSpace=wrap;fontSize=10;fontStyle=1;spacing=3;shape=mxgraph.aws4.productIcon;prIcon=mxgraph.aws4.sqs;" vertex="1" parent="askm0axA8ZJcmQ5gyK_8-22">
          <mxGeometry x="430" y="310" width="80" height="100" as="geometry" />
        </mxCell>
        <mxCell id="askm0axA8ZJcmQ5gyK_8-35" value="" style="edgeStyle=none;curved=1;rounded=0;orthogonalLoop=1;jettySize=auto;html=1;fontSize=12;startSize=8;endSize=8;" edge="1" parent="askm0axA8ZJcmQ5gyK_8-22" source="askm0axA8ZJcmQ5gyK_8-9" target="askm0axA8ZJcmQ5gyK_8-18">
          <mxGeometry relative="1" as="geometry" />
        </mxCell>
        <mxCell id="askm0axA8ZJcmQ5gyK_8-36" value="" style="edgeStyle=none;curved=1;rounded=0;orthogonalLoop=1;jettySize=auto;html=1;fontSize=12;startSize=8;endSize=8;" edge="1" parent="askm0axA8ZJcmQ5gyK_8-22" source="askm0axA8ZJcmQ5gyK_8-9" target="askm0axA8ZJcmQ5gyK_8-10">
          <mxGeometry relative="1" as="geometry" />
        </mxCell>
        <mxCell id="askm0axA8ZJcmQ5gyK_8-9" value="Amazon SNS" style="sketch=0;outlineConnect=0;fontColor=#232F3E;gradientColor=none;strokeColor=#ffffff;fillColor=#232F3E;dashed=0;verticalLabelPosition=middle;verticalAlign=bottom;align=center;html=1;whiteSpace=wrap;fontSize=10;fontStyle=1;spacing=3;shape=mxgraph.aws4.productIcon;prIcon=mxgraph.aws4.sns;" vertex="1" parent="askm0axA8ZJcmQ5gyK_8-22">
          <mxGeometry x="270" y="310" width="80" height="100" as="geometry" />
        </mxCell>
        <mxCell id="askm0axA8ZJcmQ5gyK_8-32" value="" style="edgeStyle=none;curved=1;rounded=0;orthogonalLoop=1;jettySize=auto;html=1;fontSize=12;startSize=8;endSize=8;" edge="1" parent="askm0axA8ZJcmQ5gyK_8-22" source="askm0axA8ZJcmQ5gyK_8-8" target="askm0axA8ZJcmQ5gyK_8-20">
          <mxGeometry relative="1" as="geometry" />
        </mxCell>
        <mxCell id="askm0axA8ZJcmQ5gyK_8-33" value="" style="edgeStyle=none;curved=1;rounded=0;orthogonalLoop=1;jettySize=auto;html=1;fontSize=12;startSize=8;endSize=8;" edge="1" parent="askm0axA8ZJcmQ5gyK_8-22" source="askm0axA8ZJcmQ5gyK_8-8" target="askm0axA8ZJcmQ5gyK_8-11">
          <mxGeometry relative="1" as="geometry" />
        </mxCell>
        <mxCell id="askm0axA8ZJcmQ5gyK_8-34" value="" style="edgeStyle=none;curved=1;rounded=0;orthogonalLoop=1;jettySize=auto;html=1;fontSize=12;startSize=8;endSize=8;" edge="1" parent="askm0axA8ZJcmQ5gyK_8-22" source="askm0axA8ZJcmQ5gyK_8-8" target="askm0axA8ZJcmQ5gyK_8-9">
          <mxGeometry relative="1" as="geometry" />
        </mxCell>
        <mxCell id="askm0axA8ZJcmQ5gyK_8-8" value="AWS Lambda" style="sketch=0;outlineConnect=0;fontColor=#232F3E;gradientColor=none;strokeColor=#ffffff;fillColor=#232F3E;dashed=0;verticalLabelPosition=middle;verticalAlign=bottom;align=center;html=1;whiteSpace=wrap;fontSize=10;fontStyle=1;spacing=3;shape=mxgraph.aws4.productIcon;prIcon=mxgraph.aws4.lambda;" vertex="1" parent="askm0axA8ZJcmQ5gyK_8-22">
          <mxGeometry x="110" y="310" width="80" height="100" as="geometry" />
        </mxCell>
        <mxCell id="askm0axA8ZJcmQ5gyK_8-30" value="" style="edgeStyle=none;curved=1;rounded=0;orthogonalLoop=1;jettySize=auto;html=1;fontSize=12;startSize=8;endSize=8;" edge="1" parent="askm0axA8ZJcmQ5gyK_8-22" source="askm0axA8ZJcmQ5gyK_8-3" target="askm0axA8ZJcmQ5gyK_8-6">
          <mxGeometry relative="1" as="geometry" />
        </mxCell>
        <mxCell id="askm0axA8ZJcmQ5gyK_8-3" value="Amazon Cloudfront" style="sketch=0;outlineConnect=0;fontColor=#232F3E;gradientColor=none;strokeColor=#ffffff;fillColor=#232F3E;dashed=0;verticalLabelPosition=middle;verticalAlign=bottom;align=center;html=1;whiteSpace=wrap;fontSize=10;fontStyle=1;spacing=3;shape=mxgraph.aws4.productIcon;prIcon=mxgraph.aws4.cloudfront;" vertex="1" parent="askm0axA8ZJcmQ5gyK_8-22">
          <mxGeometry x="110" y="20" width="80" height="110" as="geometry" />
        </mxCell>
        <mxCell id="askm0axA8ZJcmQ5gyK_8-31" value="" style="edgeStyle=none;curved=1;rounded=0;orthogonalLoop=1;jettySize=auto;html=1;fontSize=12;startSize=8;endSize=8;" edge="1" parent="askm0axA8ZJcmQ5gyK_8-22" source="askm0axA8ZJcmQ5gyK_8-6" target="askm0axA8ZJcmQ5gyK_8-8">
          <mxGeometry relative="1" as="geometry" />
        </mxCell>
        <mxCell id="askm0axA8ZJcmQ5gyK_8-38" value="" style="edgeStyle=none;curved=1;rounded=0;orthogonalLoop=1;jettySize=auto;html=1;fontSize=12;startSize=8;endSize=8;" edge="1" parent="askm0axA8ZJcmQ5gyK_8-22" source="askm0axA8ZJcmQ5gyK_8-6" target="askm0axA8ZJcmQ5gyK_8-7">
          <mxGeometry relative="1" as="geometry" />
        </mxCell>
        <mxCell id="askm0axA8ZJcmQ5gyK_8-6" value="Amazon API Gateway" style="sketch=0;outlineConnect=0;fontColor=#232F3E;gradientColor=none;strokeColor=#ffffff;fillColor=#232F3E;dashed=0;verticalLabelPosition=middle;verticalAlign=bottom;align=center;html=1;whiteSpace=wrap;fontSize=10;fontStyle=1;spacing=3;shape=mxgraph.aws4.productIcon;prIcon=mxgraph.aws4.api_gateway;" vertex="1" parent="askm0axA8ZJcmQ5gyK_8-22">
          <mxGeometry x="110" y="170" width="80" height="110" as="geometry" />
        </mxCell>
        <mxCell id="askm0axA8ZJcmQ5gyK_8-20" value="Amazon CloudWatch" style="sketch=0;outlineConnect=0;fontColor=#232F3E;gradientColor=none;strokeColor=#ffffff;fillColor=#232F3E;dashed=0;verticalLabelPosition=middle;verticalAlign=bottom;align=center;html=1;whiteSpace=wrap;fontSize=10;fontStyle=1;spacing=3;shape=mxgraph.aws4.productIcon;prIcon=mxgraph.aws4.cloudwatch;" vertex="1" parent="askm0axA8ZJcmQ5gyK_8-22">
          <mxGeometry x="10" y="310" width="80" height="110" as="geometry" />
        </mxCell>
        <mxCell id="askm0axA8ZJcmQ5gyK_8-11" value="Amazon RDS" style="sketch=0;outlineConnect=0;fontColor=#232F3E;gradientColor=none;strokeColor=#ffffff;fillColor=#232F3E;dashed=0;verticalLabelPosition=middle;verticalAlign=bottom;align=center;html=1;whiteSpace=wrap;fontSize=10;fontStyle=1;spacing=3;shape=mxgraph.aws4.productIcon;prIcon=mxgraph.aws4.rds;" vertex="1" parent="askm0axA8ZJcmQ5gyK_8-22">
          <mxGeometry x="110" y="450" width="80" height="100" as="geometry" />
        </mxCell>
        <mxCell id="askm0axA8ZJcmQ5gyK_8-18" value="AWS Lambda" style="sketch=0;outlineConnect=0;fontColor=#232F3E;gradientColor=none;strokeColor=#ffffff;fillColor=#232F3E;dashed=0;verticalLabelPosition=middle;verticalAlign=bottom;align=center;html=1;whiteSpace=wrap;fontSize=10;fontStyle=1;spacing=3;shape=mxgraph.aws4.productIcon;prIcon=mxgraph.aws4.lambda;" vertex="1" parent="askm0axA8ZJcmQ5gyK_8-22">
          <mxGeometry x="270" y="440" width="80" height="100" as="geometry" />
        </mxCell>
        <mxCell id="askm0axA8ZJcmQ5gyK_8-19" value="Amazon RDS" style="sketch=0;outlineConnect=0;fontColor=#232F3E;gradientColor=none;strokeColor=#ffffff;fillColor=#232F3E;dashed=0;verticalLabelPosition=middle;verticalAlign=bottom;align=center;html=1;whiteSpace=wrap;fontSize=10;fontStyle=1;spacing=3;shape=mxgraph.aws4.productIcon;prIcon=mxgraph.aws4.rds;" vertex="1" parent="askm0axA8ZJcmQ5gyK_8-22">
          <mxGeometry x="430" y="450" width="80" height="100" as="geometry" />
        </mxCell>
      </root>
    </mxGraphModel>
  </diagram>
</mxfile>
